<?xml version="1.0" encoding="utf-8"?>
<!-- Generator: Adobe Illustrator 19.1.0, SVG Export Plug-In . SVG Version: 6.00 Build 0)  -->
<svg version="1.1" id="Layer_1" xmlns="http://www.w3.org/2000/svg" xmlns:xlink="http://www.w3.org/1999/xlink" x="0px" y="0px"
	 viewBox="0 0 200 37" style="enable-background:new 0 0 200 37;" xml:space="preserve">
<style type="text/css">
	.st0{fill:#FFFFFF;}
</style>
<g>
	<path class="st0" d="M43.8,15.3v2.5h0.1C45,16,46.5,15,48.4,15c2.2,0,3.7,1.1,4.6,3.4c1.3-2.3,3-3.4,4.9-3.4c1.5,0,2.6,0.5,3.6,1.6
		c0.9,1,1.4,2.4,1.4,4.2v8.7h-1.5v-8c0-1.5-0.3-2.7-1-3.6c-0.6-0.9-1.6-1.3-2.7-1.3c-0.9,0-1.6,0.3-2.3,0.8c-0.6,0.5-1.3,1.4-2,2.5
		v9.7h-1.5v-8.1c0-1.6-0.3-2.8-1-3.6c-0.7-0.8-1.6-1.3-2.7-1.3c-1.6,0-3.1,1-4.3,3v9.9h-1.5V15.3H43.8z"/>
	<path class="st0" d="M78.7,21.9H67.6c0,0.2,0,0.5,0,0.7c0,1.6,0.6,2.9,1.7,4c1.1,1.1,2.5,1.6,4,1.6c1.8,0,3.6-0.7,5.3-2.1v1.7
		c-1.6,1.3-3.4,1.9-5.4,1.9c-2,0-3.7-0.7-5.1-2.1c-1.3-1.4-2-3.2-2-5.4c0-2.1,0.6-3.8,1.8-5.1c1.2-1.4,2.8-2,4.6-2
		c1.8,0,3.2,0.6,4.4,1.8C78.1,18.1,78.7,19.8,78.7,21.9 M67.8,20.7H77c-0.5-2.8-2-4.1-4.5-4.1c-1.2,0-2.2,0.4-3,1.1
		C68.6,18.3,68.1,19.3,67.8,20.7"/>
	<path class="st0" d="M84.6,10.6v4.7h4v1.2h-4V25c0,1.4,0.1,2.2,0.3,2.7c0.2,0.4,0.8,0.6,1.8,0.6c0.7,0,1.6-0.2,2.6-0.7V29
		c-1,0.5-2,0.7-2.9,0.7c-0.9,0-1.7-0.3-2.3-0.8c-0.6-0.5-0.9-1.3-0.9-2.2V16.5h-3.8v-1.2H83v-3.4l1-1.3H84.6z"/>
	<path class="st0" d="M101.5,16.7l-0.9,1.4c-1.2-1.1-2.1-1.6-2.8-1.6c-1.4,0-2.9,1.4-4.5,4.1v8.9h-1.5V15.3h1.5V19h0.1
		c1.7-2.7,3.3-4,5-4C99.2,15,100.3,15.6,101.5,16.7"/>
	<path class="st0" d="M109.2,15c2.1,0,3.8,0.7,5.1,2.1c1.4,1.4,2.1,3.2,2.1,5.3c0,2.1-0.7,3.8-2.1,5.2c-1.4,1.4-3.1,2.1-5.1,2.1
		c-2.1,0-3.8-0.7-5.1-2.1c-1.4-1.4-2.1-3.1-2.1-5.2c0-2.1,0.7-3.9,2.1-5.3C105.4,15.7,107.1,15,109.2,15 M109.2,28.3
		c1.6,0,2.9-0.6,4-1.7c1.1-1.1,1.6-2.5,1.6-4.2c0-1.7-0.5-3.1-1.6-4.2c-1.1-1.1-2.4-1.7-4-1.7c-1.6,0-2.9,0.6-4,1.7
		c-1.1,1.1-1.6,2.5-1.6,4.2c0,1.7,0.5,3.1,1.6,4.2C106.2,27.7,107.6,28.3,109.2,28.3"/>
	<rect x="119.8" y="8" class="st0" width="2.8" height="21.5"/>
	<path class="st0" d="M133.4,15.3c2.2,0,3.9,0.7,5.4,2.1c1.4,1.4,2.1,3.1,2.1,5.2c0,2-0.7,3.7-2.2,5.1c-1.4,1.3-3.3,2-5.5,2
		c-2.1,0-3.9-0.7-5.3-2.1c-1.4-1.4-2.1-3.1-2.1-5.1c0-2.1,0.7-3.8,2.2-5.2C129.4,16,131.2,15.3,133.4,15.3 M133.2,17.8
		c-1.3,0-2.4,0.4-3.3,1.3c-0.9,0.9-1.3,2-1.3,3.4c0,1.4,0.4,2.5,1.3,3.3c0.9,0.9,2,1.3,3.4,1.3c1.4,0,2.5-0.4,3.4-1.3
		c0.9-0.9,1.3-2,1.3-3.3c0-1.3-0.5-2.5-1.4-3.3C135.8,18.2,134.6,17.8,133.2,17.8"/>
	<path class="st0" d="M143.1,20.2c0-1.5,0.6-2.7,1.7-3.6c1.1-0.9,2.6-1.3,4.5-1.3h5.8v2.2h-2.9c0.6,0.6,0.9,1.1,1.2,1.5
		c0.2,0.5,0.3,1,0.3,1.6c0,0.7-0.2,1.5-0.6,2.2c-0.4,0.7-1,1.3-1.6,1.6c-0.7,0.4-1.7,0.7-3.3,0.9c-1.1,0.2-1.6,0.5-1.6,1.1
		c0,0.3,0.2,0.6,0.6,0.8c0.4,0.2,1.1,0.4,2.1,0.7c1.7,0.4,2.9,0.7,3.3,0.9c0.5,0.2,0.9,0.5,1.3,0.9c0.7,0.7,1,1.5,1,2.6
		c0,1.3-0.6,2.4-1.8,3.2c-1.2,0.8-2.8,1.2-4.8,1.2c-2,0-3.6-0.4-4.8-1.2c-1.2-0.8-1.8-1.9-1.8-3.2c0-1.9,1.2-3.2,3.6-3.7
		c-0.9-0.6-1.4-1.2-1.4-1.8c0-0.5,0.2-0.9,0.6-1.2c0.4-0.4,1-0.6,1.6-0.8C144.2,23.8,143.1,22.3,143.1,20.2 M147.7,30.1
		c-0.9,0-1.7,0.2-2.3,0.6c-0.6,0.4-0.9,0.9-0.9,1.5c0,1.5,1.3,2.2,3.9,2.2c1.2,0,2.2-0.2,2.9-0.5c0.7-0.4,1-0.9,1-1.5
		c0-0.7-0.4-1.2-1.3-1.6C150.2,30.3,149.1,30.1,147.7,30.1 M148.4,17.7c-0.8,0-1.4,0.3-1.9,0.8c-0.5,0.5-0.8,1.1-0.8,1.8
		c0,0.7,0.3,1.3,0.8,1.8c0.5,0.5,1.2,0.7,2,0.7c0.8,0,1.4-0.2,2-0.7c0.5-0.5,0.8-1.1,0.8-1.8c0-0.7-0.3-1.4-0.8-1.8
		C149.8,18,149.2,17.7,148.4,17.7"/>
	<path class="st0" d="M159.1,9.4c0.5,0,0.9,0.2,1.2,0.5c0.3,0.3,0.5,0.7,0.5,1.2c0,0.5-0.2,0.8-0.5,1.2c-0.3,0.3-0.7,0.5-1.2,0.5
		c-0.4,0-0.8-0.2-1.1-0.5c-0.3-0.3-0.5-0.7-0.5-1.2c0-0.4,0.2-0.8,0.5-1.1C158.3,9.5,158.7,9.4,159.1,9.4 M157.8,15.3h2.8v14.2h-2.8
		V15.3z"/>
	<path class="st0" d="M174.8,26.2v2.8c-1.4,0.5-2.8,0.8-4.1,0.8c-2.2,0-4-0.7-5.3-2c-1.3-1.3-2-3.1-2-5.3c0-2.2,0.6-4,1.9-5.4
		c1.3-1.4,3-2,5.1-2c0.7,0,1.4,0.1,2,0.2c0.6,0.1,1.3,0.4,2.1,0.8v3c-1.4-0.9-2.7-1.4-3.9-1.4c-1.3,0-2.3,0.4-3.1,1.3
		c-0.8,0.9-1.2,2-1.2,3.4c0,1.4,0.4,2.6,1.3,3.4c0.9,0.9,2.1,1.3,3.5,1.3C172.2,27.1,173.4,26.8,174.8,26.2"/>
	<path class="st0" d="M187.5,21v6c0,0.5,0.2,0.7,0.5,0.7c0.3,0,0.9-0.3,1.6-0.8v1.7c-0.6,0.4-1.1,0.7-1.5,0.8
		c-0.4,0.1-0.8,0.2-1.2,0.2c-1.2,0-1.9-0.5-2.1-1.4c-1.2,0.9-2.5,1.4-3.8,1.4c-1,0-1.8-0.3-2.5-1c-0.7-0.7-1-1.5-1-2.5
		c0-0.9,0.3-1.7,1-2.4c0.6-0.7,1.6-1.3,2.7-1.7l3.6-1.2v-0.8c0-1.7-0.9-2.6-2.6-2.6c-1.5,0-3,0.8-4.5,2.4V17
		c1.1-1.3,2.7-1.9,4.7-1.9c1.5,0,2.8,0.4,3.7,1.2c0.3,0.3,0.6,0.6,0.8,1c0.2,0.4,0.4,0.9,0.5,1.3C187.5,19,187.5,19.8,187.5,21
		 M184.7,26.7v-4.2l-1.9,0.7c-1,0.4-1.6,0.8-2,1.1c-0.4,0.4-0.6,0.9-0.6,1.4c0,0.6,0.2,1.1,0.6,1.4c0.4,0.4,0.9,0.6,1.5,0.6
		C183.2,27.8,184,27.4,184.7,26.7"/>
	<rect x="191.7" y="8" class="st0" width="2.8" height="21.5"/>
	<path class="st0" d="M196.4,9.8c0-0.5,0.2-0.9,0.5-1.3c0.4-0.4,0.8-0.5,1.3-0.5c0.5,0,0.9,0.2,1.3,0.5c0.4,0.4,0.5,0.8,0.5,1.3
		c0,0.5-0.2,0.9-0.5,1.3c-0.4,0.4-0.8,0.5-1.3,0.5c-0.5,0-0.9-0.2-1.3-0.5C196.6,10.7,196.4,10.3,196.4,9.8 M199.8,9.8
		c0-0.4-0.2-0.8-0.5-1.1c-0.3-0.3-0.7-0.5-1.1-0.5c-0.4,0-0.8,0.2-1.1,0.5c-0.3,0.3-0.5,0.7-0.5,1.1c0,0.4,0.2,0.8,0.5,1.1
		c0.3,0.3,0.7,0.5,1.1,0.5c0.4,0,0.8-0.2,1.1-0.5C199.6,10.6,199.8,10.2,199.8,9.8 M197.5,8.8h0.8c0.2,0,0.4,0,0.5,0.1
		c0.1,0.1,0.2,0.2,0.2,0.4c0,0.3-0.2,0.5-0.5,0.5c0.1,0.1,0.2,0.2,0.3,0.3c0.1,0.1,0.2,0.3,0.3,0.6h-0.3c-0.2-0.4-0.3-0.6-0.4-0.7
		c-0.1-0.1-0.3-0.1-0.5-0.1h-0.1v0.8h-0.2V8.8z M197.7,9.7h0.3c0.2,0,0.4,0,0.5-0.1c0.1-0.1,0.1-0.1,0.1-0.3c0-0.1,0-0.2-0.1-0.3
		c-0.1,0-0.2-0.1-0.4-0.1h-0.3V9.7z"/>
	<polygon class="st0" points="20.5,0.3 15.6,5.1 10.8,0.3 9,2.1 15.6,8.8 22.3,2.1 	"/>
	<g>
		<path class="st0" d="M15.6,34.6c-3.2,0-6.6-0.2-9.9-0.5c-2.5-0.3-4.9-2.5-5.3-4.9l0,0c-0.7-4.7-0.7-9.2,0-13.9l0,0
			c0.4-2.4,2.6-4.7,5.3-4.9c3.3-0.3,6.6-0.5,9.8-0.5c3.2,0,6.6,0.2,9.9,0.5c2.5,0.3,4.9,2.5,5.3,4.9l0,0c0.7,4.7,0.7,9.2,0,13.9l0,0
			c-0.4,2.4-2.8,4.6-5.2,4.9C22.2,34.4,18.9,34.6,15.6,34.6z M3.6,28.6c0.2,1,1.4,2.2,2.5,2.3c3.2,0.3,6.4,0.5,9.5,0.5
			c3.1,0,6.3-0.2,9.5-0.5c1-0.1,2.3-1.2,2.4-2.3c0.6-4.4,0.6-8.5,0-13c-0.2-1-1.4-2.2-2.5-2.3c-3.2-0.3-6.4-0.5-9.5-0.5
			c-3.1,0-6.3,0.2-9.5,0.5c-1,0.1-2.3,1.2-2.4,2.3C3,20.1,3,24.2,3.6,28.6z"/>
	</g>
</g>
</svg>
